<svg width="24" height="24" viewBox="0 0 24 24" fill="none" xmlns="http://www.w3.org/2000/svg">
<path d="M15.3 12.005C15.3 12.125 15.2792 12.2375 15.2375 12.3425C15.1958 12.4475 15.1333 12.5417 15.05 12.625L10.3085 17.3665C10.1195 17.5555 9.90417 17.6458 9.6625 17.6375C9.42083 17.6292 9.20833 17.5333 9.025 17.35C8.84167 17.1667 8.75 16.9542 8.75 16.7125C8.75 16.4708 8.84167 16.2583 9.025 16.075L13.125 12L9.025 7.9C8.84167 7.71667 8.75417 7.50417 8.7625 7.2625C8.77083 7.02084 8.86667 6.80834 9.05 6.625C9.23333 6.44167 9.44583 6.35 9.6875 6.35C9.92917 6.35 10.144 6.4445 10.332 6.6335L15.05 11.375C15.1333 11.465 15.1958 11.5625 15.2375 11.6675C15.2792 11.7725 15.3 11.885 15.3 12.005Z" fill="#6B6B6B"/>
</svg>
