<svg width="24" height="24" viewBox="0 0 24 24" fill="none" xmlns="http://www.w3.org/2000/svg">
<path d="M9.60085 15.6C7.93368 15.6 6.51676 15.0167 5.3501 13.85C4.18343 12.6833 3.6001 11.2667 3.6001 9.60001C3.6001 7.93334 4.18343 6.51667 5.3501 5.35001C6.51676 4.18334 7.93343 3.60001 9.6001 3.60001C11.2668 3.60001 12.6834 4.18334 13.8501 5.35001C15.0168 6.51667 15.6001 7.93359 15.6001 9.60076C15.6001 10.2739 15.4959 10.9088 15.2876 11.5053C15.0793 12.1018 14.7918 12.65 14.4251 13.15L19.7751 18.5C19.9584 18.6833 20.0501 18.8917 20.0501 19.125C20.0501 19.3583 19.9584 19.5667 19.7751 19.75C19.5918 19.9333 19.3793 20.025 19.1376 20.025C18.8959 20.025 18.6834 19.9333 18.5001 19.75L13.1501 14.425C12.6501 14.7917 12.1018 15.0792 11.5053 15.2875C10.9088 15.4958 10.274 15.6 9.60085 15.6ZM9.6001 13.8C10.7668 13.8 11.7584 13.3917 12.5751 12.575C13.3918 11.7583 13.8001 10.7667 13.8001 9.60001C13.8001 8.43334 13.3918 7.44167 12.5751 6.62501C11.7584 5.80834 10.7668 5.40001 9.6001 5.40001C8.43343 5.40001 7.44176 5.80834 6.6251 6.62501C5.80843 7.44167 5.4001 8.43334 5.4001 9.60001C5.4001 10.7667 5.80843 11.7583 6.6251 12.575C7.44176 13.3917 8.43343 13.8 9.6001 13.8Z" fill="#959595"/>
</svg>
