<svg width="17" height="17" viewBox="0 0 17 17" fill="none" xmlns="http://www.w3.org/2000/svg">
<g clip-path="url(#clip0_1544_61)">
<path fill-rule="evenodd" clip-rule="evenodd" d="M8.47616 0.5C4.06555 0.5 0.5 4.16667 0.5 8.70283C0.5 12.3288 2.78457 15.3982 5.95388 16.4845C6.35012 16.5662 6.49527 16.308 6.49527 16.0908C6.49527 15.9007 6.4822 15.2488 6.4822 14.5697C4.26343 15.0587 3.80139 13.5918 3.80139 13.5918C3.44482 12.6412 2.91649 12.3968 2.91649 12.3968C2.19029 11.8943 2.96939 11.8943 2.96939 11.8943C3.77494 11.9487 4.19763 12.7363 4.19763 12.7363C4.91061 13.9857 6.05951 13.6327 6.52171 13.4153C6.58767 12.8857 6.7991 12.519 7.02359 12.3153C5.25396 12.1252 3.39208 11.419 3.39208 8.26817C3.39208 7.37183 3.70882 6.6385 4.21069 6.06817C4.13151 5.8645 3.85412 5.02233 4.29004 3.89517C4.29004 3.89517 4.96351 3.67783 6.48204 4.73717C7.13218 4.55761 7.80265 4.46627 8.47616 4.4655C9.14963 4.4655 9.83616 4.56067 10.4701 4.73717C11.9888 3.67783 12.6623 3.89517 12.6623 3.89517C13.0982 5.02233 12.8207 5.8645 12.7415 6.06817C13.2566 6.6385 13.5602 7.37183 13.5602 8.26817C13.5602 11.419 11.6984 12.1115 9.91551 12.3153C10.2061 12.5733 10.4569 13.0622 10.4569 13.8363C10.4569 14.9363 10.4438 15.8192 10.4438 16.0907C10.4438 16.308 10.5891 16.5662 10.9852 16.4847C14.1545 15.398 16.4391 12.3288 16.4391 8.70283C16.4522 4.16667 12.8736 0.5 8.47616 0.5Z" fill="black"/>
</g>
<defs>
<clipPath id="clip0_1544_61">
<rect width="16" height="16" fill="white" transform="translate(0.5 0.5)"/>
</clipPath>
</defs>
</svg>
