<svg width="22" height="32" viewBox="0 0 22 32" fill="none" xmlns="http://www.w3.org/2000/svg">
<path fill-rule="evenodd" clip-rule="evenodd" d="M21.3334 1.01123C21.3334 0.454577 20.8788 0.00507483 20.3222 0.0112892L14.3222 0.0782765C13.7743 0.0843935 13.3334 0.530284 13.3334 1.07821V14.6658C13.3334 15.6018 13.5524 16.5249 13.9728 17.3611L19.44 28.2343C19.9134 29.176 21.3334 28.8391 21.3334 27.7851V1.01123Z" fill="white"/>
<path fill-rule="evenodd" clip-rule="evenodd" d="M8.00001 1.01123C8.00001 0.454577 7.54546 0.00507483 6.98885 0.0112892L0.988836 0.0782765C0.44094 0.0843935 0 0.530284 0 1.07821V14.6658C0 15.6018 0.218993 16.5249 0.639471 17.3611L6.10659 28.2343C6.58007 29.176 8.00001 28.8391 8.00001 27.7851V1.01123Z" fill="white"/>
</svg>
