<svg width="43" height="64" viewBox="0 0 43 64" fill="none" xmlns="http://www.w3.org/2000/svg">
<path fill-rule="evenodd" clip-rule="evenodd" d="M42.6666 1.01123C42.6666 0.454577 42.2121 0.00507483 41.6555 0.0112892L27.6555 0.167593C27.1076 0.17371 26.6666 0.619601 26.6666 1.16753V29.3316C26.6666 31.2036 27.1046 33.0497 27.9456 34.7222L40.7732 60.2343C41.2467 61.176 42.6666 60.8391 42.6666 59.7851V1.01123Z" fill="white"/>
<path fill-rule="evenodd" clip-rule="evenodd" d="M16 1.01123C16 0.454577 15.5455 0.00507483 14.9889 0.0112892L0.988836 0.167593C0.440941 0.17371 0 0.619601 0 1.16753V29.3316C0 31.2036 0.437985 33.0497 1.27894 34.7222L14.1066 60.2343C14.5801 61.176 16 60.8391 16 59.7851V1.01123Z" fill="white"/>
</svg>
