<svg width="86" height="128" viewBox="0 0 86 128" fill="none" xmlns="http://www.w3.org/2000/svg">
<path fill-rule="evenodd" clip-rule="evenodd" d="M85.3333 1.01123C85.3333 0.454581 84.8787 0.00507483 84.3221 0.0112892L54.3221 0.346226C53.7742 0.352343 53.3333 0.798234 53.3333 1.34616V56.7652C53.3333 61.7573 54.5012 66.6801 56.7438 71.1402L83.4398 124.234C83.9133 125.176 85.3333 124.839 85.3333 123.785V1.01123Z" fill="white"/>
<path fill-rule="evenodd" clip-rule="evenodd" d="M32 1.01123C32 0.454581 31.5455 0.00507483 30.9888 0.0112892L0.988834 0.346226C0.440939 0.352343 0 0.798234 0 1.34616V56.7652C0 61.7573 1.16796 66.6801 3.4105 71.1402L30.1066 124.234C30.5801 125.176 32 124.839 32 123.785V1.01123Z" fill="white"/>
</svg>
